<?xml version="1.0" standalone="no"?>
<!DOCTYPE svg PUBLIC "-//W3C//DTD SVG 20010904//EN"
 "http://www.w3.org/TR/2001/REC-SVG-20010904/DTD/svg10.dtd">
<svg version="1.0" xmlns="http://www.w3.org/2000/svg"
 width="500.000000pt" height="500.000000pt" viewBox="0 0 500.000000 500.000000"
 preserveAspectRatio="xMidYMid meet">

<g transform="translate(0.000000,500.000000) scale(0.100000,-0.100000)"
fill="#000000" stroke="none">
<path d="M3146 4639 c-93 -15 -192 -100 -216 -187 -18 -65 -12 -152 14 -207
28 -62 101 -128 163 -149 92 -31 217 -13 281 41 l32 28 -45 72 -46 72 -32 -19
c-75 -46 -167 -5 -167 75 0 80 92 121 167 75 l32 -19 46 72 46 72 -28 22 c-54
43 -162 66 -247 52z"/>
<path d="M4464 4640 c-64 -9 -129 -53 -153 -103 -24 -49 -26 -73 -10 -114 17
-47 60 -84 137 -119 39 -18 72 -38 72 -43 0 -33 -72 -31 -137 2 -18 10 -34 17
-37 17 -2 0 -19 -25 -36 -55 -37 -65 -36 -69 46 -110 80 -40 188 -47 262 -15
90 39 129 107 110 194 -12 56 -63 104 -141 133 -37 15 -52 26 -52 39 0 25 57
31 90 10 14 -9 28 -16 33 -16 5 0 24 23 41 52 l33 52 -29 23 c-54 44 -147 65
-229 53z"/>
<path d="M381 4630 l-105 -5 -77 -265 c-43 -146 -79 -266 -79 -267 0 -2 49 -3
109 -3 l109 0 7 40 7 40 54 0 c56 0 57 0 68 -52 l6 -28 105 0 c86 0 105 3 105
15 0 24 -141 509 -151 520 -11 11 -23 11 -158 5z m38 -237 c26 -103 26 -103
-9 -103 -31 0 -32 1 -26 33 4 17 9 49 13 70 3 20 7 37 9 37 2 0 8 -17 13 -37z"/>
<path d="M783 4632 l-33 -3 0 -270 0 -270 98 3 97 3 4 145 3 145 47 -145 47
-145 79 0 79 0 47 145 47 145 1 -135 c1 -74 5 -141 9 -148 6 -9 34 -12 103
-10 l94 3 1 265 c1 146 -2 267 -6 270 -14 9 -271 3 -279 -6 -4 -5 -25 -67 -46
-139 -21 -71 -40 -132 -42 -134 -7 -10 -16 13 -54 140 -23 74 -43 136 -45 138
-6 6 -206 8 -251 3z"/>
<path d="M1793 4632 l-203 -2 0 -270 0 -270 218 2 217 3 3 73 3 72 -121 0
-120 0 0 25 0 25 100 0 100 0 0 75 0 75 -100 0 -100 0 0 25 0 25 110 0 110 0
0 69 c0 39 -3 71 -7 73 -5 2 -99 2 -210 0z"/>
<path d="M2097 4634 c-4 -4 -7 -128 -7 -276 l0 -268 95 0 95 0 0 90 c0 50 4
90 9 90 5 0 31 -40 57 -90 l48 -90 108 0 c62 0 108 4 108 10 0 5 -27 52 -59
105 l-59 97 20 20 c51 51 63 155 25 222 -15 27 -38 48 -72 65 -46 24 -61 26
-205 29 -85 2 -159 0 -163 -4z m251 -146 c7 -7 12 -21 12 -33 0 -29 -19 -45
-52 -45 -26 0 -28 3 -28 38 0 21 3 42 7 45 11 11 48 8 61 -5z"/>
<path d="M2654 4631 c-2 -2 -4 -125 -4 -273 l0 -268 95 0 95 0 -2 273 -3 272
-88 0 c-49 0 -90 -2 -93 -4z"/>
<path d="M3651 4631 l-55 -6 -72 -245 c-40 -134 -75 -255 -79 -267 -5 -23 -5
-23 103 -23 l108 0 10 38 c9 36 10 37 61 40 50 3 53 2 59 -25 3 -15 7 -34 10
-40 2 -9 33 -13 109 -13 91 0 105 2 105 16 0 20 -140 506 -149 516 -9 10 -146
16 -210 9z m94 -267 c3 -26 9 -53 12 -60 4 -10 -4 -14 -26 -14 -35 0 -36 5
-20 80 13 60 24 58 34 -6z"/>
<path d="M4070 4538 c-12 -51 -24 -101 -27 -110 -4 -16 3 -18 55 -18 l60 0 36
93 c19 50 38 100 42 110 5 15 -2 17 -69 17 l-75 0 -22 -92z"/>
<path d="M218 4003 l-88 -4 0 -269 0 -270 95 0 95 0 0 85 0 85 68 0 c101 0
162 33 198 106 22 45 26 63 20 101 -9 70 -34 104 -96 135 -61 30 -137 38 -292
31z m172 -153 c11 -11 20 -24 20 -30 0 -19 -40 -50 -65 -50 -23 0 -25 4 -25
43 0 24 3 47 7 50 13 13 43 7 63 -13z"/>
<path d="M1353 4003 l-93 -4 0 -269 0 -270 100 0 100 0 0 84 0 84 73 4 c88 5
140 28 173 77 69 105 21 250 -94 280 -51 13 -149 18 -259 14z m179 -156 c21
-34 -5 -77 -48 -77 -22 0 -24 4 -24 51 l0 52 32 -7 c18 -3 36 -12 40 -19z"/>
<path d="M2388 4003 l-88 -4 0 -269 0 -270 100 0 99 0 3 93 3 92 50 -92 50
-93 113 0 112 0 -51 83 c-29 45 -58 91 -65 102 -12 17 -11 22 10 45 63 68 61
196 -5 257 -53 48 -144 64 -331 56z m180 -160 c6 -9 12 -20 12 -25 0 -16 -40
-48 -60 -48 -17 0 -20 7 -20 51 0 51 0 51 28 45 15 -4 33 -14 40 -23z"/>
<path d="M775 3943 c-9 -32 -43 -149 -76 -259 -32 -111 -59 -207 -59 -213 0
-7 35 -11 105 -11 l105 0 6 28 c11 51 12 52 64 52 52 0 53 -1 64 -52 l6 -28
105 0 c72 0 105 4 105 11 0 13 -72 278 -117 429 l-28 95 -132 3 -131 3 -17
-58z m158 -190 c4 -21 9 -53 13 -70 6 -32 5 -33 -26 -33 -28 0 -32 3 -27 23 3
12 9 43 12 70 9 57 20 61 28 10z"/>
<path d="M1807 3993 c-4 -3 -7 -125 -7 -270 l0 -263 220 0 221 0 -3 73 -3 72
-117 3 c-110 2 -118 4 -118 22 0 19 7 20 100 20 l100 0 0 75 0 74 -97 3 c-93
3 -98 4 -101 26 -3 22 -2 22 107 22 l111 0 0 75 0 75 -203 0 c-112 0 -207 -3
-210 -7z"/>
<path d="M4370 3725 c14 -8 30 -14 35 -14 6 0 -1 6 -15 14 -14 8 -29 14 -35
14 -5 0 1 -6 15 -14z"/>
<path d="M4490 3670 c8 -5 20 -10 25 -10 6 0 3 5 -5 10 -8 5 -19 10 -25 10 -5
0 -3 -5 5 -10z"/>
<path d="M4695 3573 c43 -22 47 -27 30 -34 -14 -5 -6 -8 29 -8 42 -1 47 1 36
14 -7 9 -15 14 -17 11 -3 -2 -29 7 -59 20 -72 32 -82 30 -19 -3z"/>
<path d="M1533 3383 l-82 -4 -3 -127 c-2 -85 -6 -117 -11 -97 -47 178 -206
266 -370 205 -210 -79 -225 -386 -24 -484 72 -35 131 -42 199 -22 92 26 140
79 195 211 5 12 9 -28 11 -107 l3 -128 97 0 97 0 -2 58 c-1 31 2 73 6 92 l7
35 36 -65 c20 -36 42 -77 49 -92 l12 -28 456 0 c358 1 464 4 494 14 63 23 113
64 143 119 26 47 29 61 29 142 0 73 -4 98 -22 130 -64 122 -166 159 -397 148
l-116 -6 -2 -186 -3 -185 -95 1 -95 1 -5 184 -5 183 -97 3 -98 3 -2 -238 -3
-237 -44 67 -44 68 25 27 c53 57 61 157 19 226 -45 73 -150 99 -358 89z m-423
-43 c0 -5 -4 -10 -9 -10 -5 0 -8 -12 -6 -27 2 -16 2 -22 -1 -15 -3 6 -12 12
-20 12 -9 0 -11 6 -7 18 10 27 43 44 43 22z m75 -10 c3 -5 14 -10 24 -10 12 0
24 -14 34 -41 l16 -40 20 20 c12 12 28 21 36 21 8 0 15 6 15 13 0 6 12 -1 26
-17 14 -15 24 -38 22 -50 -1 -11 1 -27 6 -35 5 -8 4 -16 -3 -21 -7 -4 -11 -11
-9 -16 1 -5 -3 -24 -11 -41 -17 -41 -9 -63 24 -63 30 0 30 -1 9 -43 -33 -65
-97 -118 -166 -138 -41 -11 -37 16 12 70 47 51 52 69 25 85 -11 6 -22 14 -25
17 -11 13 -52 30 -64 26 -17 -7 -18 -58 -1 -77 12 -13 14 -30 9 -75 l-7 -57
-44 6 c-122 16 -213 122 -213 248 0 65 13 106 36 115 27 10 63 -18 74 -58 10
-36 53 -78 95 -92 19 -7 19 -6 3 7 -25 19 -24 50 1 43 14 -3 28 6 48 29 15 19
33 34 40 34 10 0 10 6 1 25 -6 14 -15 25 -19 25 -4 0 -15 3 -24 7 -14 5 -16 2
-10 -15 4 -16 2 -22 -8 -22 -27 0 -38 24 -24 53 14 32 32 34 47 7 6 -12 16
-17 22 -14 8 5 1 17 -19 33 -16 14 -28 32 -26 39 6 15 19 16 28 2z m-144 -19
c-11 -7 -10 -11 5 -20 23 -12 1 -14 -31 -2 -19 8 -19 8 0 19 23 13 47 16 26 3z
m667 -83 c29 -29 7 -78 -35 -78 -21 0 -23 5 -23 45 0 40 2 45 23 45 13 0 28
-5 35 -12z m901 -19 c56 -20 79 -105 46 -169 -18 -35 -43 -50 -84 -50 l-31 0
0 115 c0 128 0 128 69 104z"/>
<path d="M1328 3263 c7 -3 16 -2 19 1 4 3 -2 6 -13 5 -11 0 -14 -3 -6 -6z"/>
<path d="M140 3361 c0 -16 86 -425 106 -506 6 -25 7 -25 114 -25 95 0 109 2
114 18 2 9 15 67 27 127 12 61 25 114 29 118 4 5 20 -53 36 -128 l28 -136 111
3 110 3 52 240 c28 132 54 255 58 273 l6 32 -100 0 -100 0 -6 -32 c-10 -59
-35 -238 -35 -250 0 -7 -3 -8 -9 -3 -5 6 -19 66 -32 135 -12 69 -27 131 -32
138 -6 8 -37 12 -91 12 l-82 0 -28 -145 c-16 -80 -31 -143 -35 -140 -3 4 -15
68 -26 143 l-20 137 -97 3 c-91 3 -98 1 -98 -17z"/>
<path d="M4403 3005 c0 -38 2 -53 4 -32 2 20 2 52 0 70 -2 17 -4 1 -4 -38z"/>
<path d="M4540 3061 c0 -5 5 -13 10 -16 6 -3 10 -2 10 4 0 5 -4 13 -10 16 -5
3 -10 2 -10 -4z"/>
<path d="M3803 3000 c0 -36 2 -50 4 -32 2 17 2 47 0 65 -2 17 -4 3 -4 -33z"/>
<path d="M4486 3051 c4 -8 11 -28 15 -45 6 -29 7 -29 8 -5 1 14 -6 34 -15 45
-8 10 -12 13 -8 5z"/>
<path d="M4262 3005 c0 -16 2 -22 5 -12 2 9 2 23 0 30 -3 6 -5 -1 -5 -18z"/>
<path d="M4730 3016 c0 -8 42 -76 46 -76 3 0 -5 18 -16 40 -18 35 -30 49 -30
36z"/>
<path d="M3388 2983 c5 -21 7 -23 10 -9 2 10 0 22 -6 28 -6 6 -7 0 -4 -19z"/>
<path d="M3913 2975 c0 -22 2 -30 4 -17 2 12 2 30 0 40 -3 9 -5 -1 -4 -23z"/>
<path d="M3548 2973 c5 -21 7 -23 10 -9 2 10 0 22 -6 28 -6 6 -7 0 -4 -19z"/>
<path d="M3642 2970 c0 -19 2 -27 5 -17 2 9 2 25 0 35 -3 9 -5 1 -5 -18z"/>
<path d="M3752 2970 c0 -19 2 -27 5 -17 2 9 2 25 0 35 -3 9 -5 1 -5 -18z"/>
<path d="M3851 2954 c0 -11 3 -14 6 -6 3 7 2 16 -1 19 -3 4 -6 -2 -5 -13z"/>
<path d="M15 2524 c29 -22 126 -71 187 -94 75 -28 196 -55 403 -90 304 -52
433 -94 559 -184 150 -107 242 -260 373 -621 72 -201 144 -378 150 -372 2 2
-15 51 -38 108 -23 57 -63 165 -89 239 -125 352 -190 471 -331 605 -135 128
-268 178 -630 240 -307 52 -465 98 -558 164 -34 24 -56 28 -26 5z"/>
<path d="M1780 2464 c-69 -18 -125 -46 -169 -82 l-33 -28 57 -87 c31 -48 57
-87 58 -87 1 0 24 11 50 25 127 64 227 26 181 -70 -22 -47 -132 -148 -239
-219 l-85 -58 0 -119 0 -119 323 2 322 3 0 125 0 125 -119 5 -119 5 49 32
c103 66 182 168 198 254 16 87 -35 193 -119 251 -82 56 -236 74 -355 42z"/>
<path d="M2644 2465 c-62 -20 -102 -43 -152 -88 -114 -105 -163 -271 -129
-433 50 -233 235 -365 465 -333 166 23 296 152 333 329 15 73 6 200 -20 274
-42 120 -148 221 -262 251 -66 18 -179 18 -235 0z m174 -278 c63 -67 52 -270
-16 -306 -93 -50 -172 96 -131 243 22 81 100 114 147 63z"/>
<path d="M3444 2462 c-67 -20 -139 -59 -168 -91 -18 -20 -18 -21 23 -89 69
-115 59 -108 120 -78 72 37 139 44 170 19 68 -55 -14 -163 -237 -311 l-83 -55
3 -116 3 -116 323 -3 322 -2 0 130 0 129 -117 3 -118 3 57 38 c71 48 145 128
171 186 28 63 26 145 -7 208 -30 60 -71 97 -146 132 -73 34 -224 40 -316 13z"/>
<path d="M4302 2433 c-10 -16 -78 -123 -150 -240 l-132 -211 0 -116 0 -116
175 0 175 0 0 -65 0 -65 155 0 155 0 0 65 0 65 35 0 35 0 0 115 0 115 -35 0
-35 0 0 240 0 240 -179 0 -180 0 -19 -27z m64 -450 c-2 -2 -20 -3 -40 -1 l-36
3 37 75 38 75 3 -74 c2 -40 1 -75 -2 -78z"/>
<path d="M0 2434 c0 -10 130 -64 217 -89 48 -14 179 -41 290 -60 246 -43 312
-58 414 -95 149 -54 262 -142 349 -271 60 -87 140 -260 200 -429 68 -193 122
-331 128 -325 2 2 -16 59 -41 127 -25 68 -69 186 -98 263 -91 246 -173 390
-284 493 -143 134 -269 182 -645 247 -235 40 -360 71 -456 115 -71 32 -74 33
-74 24z"/>
<path d="M0 2345 c0 -10 62 -36 147 -60 48 -14 192 -44 318 -66 380 -65 500
-109 632 -232 41 -39 93 -97 115 -130 55 -81 127 -236 182 -392 75 -209 108
-295 119 -302 7 -4 8 1 3 13 -5 10 -42 111 -83 224 -122 335 -192 463 -319
586 -131 128 -278 185 -634 244 -207 34 -351 68 -423 99 -52 22 -57 24 -57 16z"/>
<path d="M6 2251 c18 -18 201 -60 413 -96 278 -47 347 -65 456 -119 211 -104
326 -264 459 -636 82 -227 88 -242 93 -236 11 10 -143 409 -198 516 -99 191
-194 291 -345 365 -103 50 -221 81 -454 121 -225 39 -304 56 -369 79 -50 17
-70 19 -55 6z"/>
<path d="M4 2172 c3 -5 16 -12 28 -15 133 -29 189 -40 325 -61 87 -14 174 -28
193 -32 19 -4 32 -4 29 0 -3 3 -100 22 -215 41 -182 31 -278 51 -348 72 -11 3
-16 1 -12 -5z"/>
<path d="M20 2090 c29 -13 427 -83 442 -78 6 2 -85 20 -203 41 -118 20 -225
39 -239 42 l-25 6 25 -11z"/>
<path d="M635 2044 c335 -100 487 -269 645 -719 29 -82 57 -154 62 -160 9 -9
-49 158 -106 308 -95 252 -234 425 -410 510 -70 34 -200 78 -227 76 -8 0 9 -7
36 -15z"/>
<path d="M18 2013 c6 -2 18 -2 25 0 6 3 1 5 -13 5 -14 0 -19 -2 -12 -5z"/>
<path d="M65 2005 c6 -2 93 -18 195 -36 226 -38 330 -67 438 -121 187 -93 329
-282 437 -581 15 -42 29 -76 31 -74 6 5 -32 119 -68 202 -130 304 -310 468
-593 539 -121 31 -491 90 -440 71z"/>
<path d="M565 1984 c314 -84 491 -270 635 -667 24 -64 45 -115 47 -113 6 6
-95 272 -129 341 -89 177 -214 309 -362 380 -81 39 -231 86 -268 84 -7 0 28
-11 77 -25z"/>
<path d="M0 1948 c0 -4 3 -8 8 -8 25 0 367 -63 432 -80 302 -77 470 -241 611
-597 27 -68 49 -109 49 -91 0 13 -72 182 -109 255 -54 108 -150 233 -224 293
-76 62 -179 112 -294 145 -106 30 -473 95 -473 83z"/>
<path d="M1 1876 c3 -3 71 -18 150 -31 484 -85 647 -202 811 -580 26 -60 48
-103 48 -93 0 31 -73 189 -129 278 -114 183 -240 281 -439 344 -108 34 -457
99 -441 82z"/>
<path d="M5 1800 c3 -5 17 -10 30 -10 13 0 79 -11 147 -25 382 -76 531 -181
680 -481 34 -68 64 -122 66 -120 2 3 -17 48 -42 101 -101 214 -209 332 -378
414 -109 53 -192 77 -377 110 -132 24 -134 24 -126 11z"/>
<path d="M0 1732 c0 -4 48 -16 107 -26 363 -61 547 -185 687 -463 38 -77 57
-98 31 -37 -36 87 -115 203 -185 275 -136 137 -269 192 -607 253 -18 3 -33 2
-33 -2z"/>
<path d="M0 1661 c0 -4 53 -17 118 -30 141 -29 199 -48 295 -98 98 -51 219
-171 282 -280 26 -46 50 -83 52 -83 12 0 -79 150 -125 206 -93 113 -215 189
-384 238 -102 29 -238 56 -238 47z"/>
<path d="M79 1569 c47 -10 86 -17 89 -15 5 5 -132 36 -155 35 -10 0 20 -9 66
-20z"/>
<path d="M259 1516 c152 -62 261 -152 349 -288 20 -31 40 -57 45 -57 12 -1
-64 113 -115 172 -26 31 -80 77 -119 103 -67 45 -197 103 -229 103 -8 1 23
-15 69 -33z"/>
<path d="M1 1516 c2 -2 33 -12 69 -21 98 -25 188 -63 260 -110 61 -39 165
-139 203 -194 9 -14 19 -23 21 -20 9 9 -95 132 -148 177 -67 57 -211 127 -311
152 -81 20 -102 23 -94 16z"/>
<path d="M3216 1473 c-3 -3 -6 -64 -6 -135 0 -107 2 -128 15 -128 13 0 15 21
15 129 0 118 -6 152 -24 134z"/>
<path d="M2270 1464 c-8 -3 -21 -8 -29 -10 -10 -3 -11 -7 -1 -19 9 -11 17 -12
30 -5 10 6 26 7 34 4 26 -10 18 -35 -14 -47 -38 -14 -38 -24 1 -32 24 -5 29
-11 27 -28 -3 -19 -9 -22 -46 -21 -34 1 -42 -2 -40 -15 5 -24 84 -27 109 -5
25 22 24 60 0 76 -20 12 -20 12 0 26 22 15 25 45 6 60 -16 14 -58 22 -77 16z"/>
<path d="M2674 1460 c-50 -21 -69 -92 -39 -149 16 -33 33 -41 81 -41 107 0
115 178 9 195 -16 2 -40 0 -51 -5z m74 -42 c17 -17 15 -84 -4 -102 -48 -49
-109 29 -74 95 12 22 59 26 78 7z"/>
<path d="M2421 1436 c-28 -30 -19 -56 10 -30 19 17 19 15 19 -59 0 -70 2 -77
20 -77 19 0 20 7 20 95 0 93 -1 95 -23 95 -13 0 -34 -11 -46 -24z"/>
<path d="M3418 1439 c-16 -12 -25 -26 -21 -35 5 -13 8 -13 24 2 18 17 19 15
19 -59 0 -70 2 -77 20 -77 19 0 20 7 20 95 0 106 -8 115 -62 74z"/>
<path d="M3620 1365 c0 -88 1 -95 20 -95 18 0 20 7 20 73 l0 72 42 -72 c33
-58 47 -73 65 -73 22 0 23 2 23 95 0 78 -3 95 -15 95 -12 0 -15 -15 -15 -72
l-1 -73 -41 73 c-36 62 -46 72 -70 72 l-28 0 0 -95z"/>
<path d="M0 1443 c0 -5 30 -17 68 -28 118 -33 214 -89 309 -178 48 -45 77 -68
65 -51 -35 51 -128 131 -195 168 -92 52 -247 107 -247 89z"/>
<path d="M2986 1423 c-14 -18 -16 -28 -8 -31 7 -2 12 -25 12 -57 0 -56 8 -65
56 -65 15 0 24 6 24 15 0 8 -9 15 -20 15 -17 0 -20 7 -20 45 0 38 3 45 20 45
11 0 20 7 20 15 0 8 -9 15 -20 15 -11 0 -20 7 -20 15 0 23 -23 17 -44 -12z"/>
<path d="M2854 1399 c-26 -29 -25 -96 1 -115 28 -20 89 -14 93 9 3 15 -1 17
-22 11 -32 -8 -56 10 -56 41 0 28 24 49 49 42 19 -5 36 15 24 27 -15 14 -71 5
-89 -15z"/>
<path d="M3855 1400 c-11 -12 -19 -36 -19 -55 0 -45 28 -75 69 -75 42 0 67 29
67 76 0 66 -76 100 -117 54z m76 -34 c20 -43 -18 -85 -49 -54 -25 25 -8 78 25
78 7 0 18 -11 24 -24z"/>
<path d="M3992 1412 c2 -4 14 -38 27 -75 20 -54 29 -67 46 -67 17 0 26 13 46
67 13 37 26 71 27 75 2 4 -5 8 -16 8 -16 0 -25 -13 -39 -56 l-19 -56 -17 56
c-14 44 -22 56 -38 56 -12 0 -19 -4 -17 -8z"/>
<path d="M2 1365 c4 -5 39 -21 78 -36 84 -34 171 -88 222 -137 21 -20 38 -31
38 -26 0 14 -78 80 -139 118 -60 38 -220 103 -199 81z"/>
<path d="M0 1282 c0 -5 25 -19 55 -31 30 -13 74 -36 97 -52 53 -36 74 -38 27
-3 -58 44 -179 101 -179 86z"/>
<path d="M4073 975 c0 -27 2 -38 4 -22 2 15 2 37 0 50 -2 12 -4 0 -4 -28z"/>
<path d="M1002 960 c0 -19 2 -27 5 -17 2 9 2 25 0 35 -3 9 -5 1 -5 -18z"/>
<path d="M3942 960 c0 -19 2 -27 5 -17 2 9 2 25 0 35 -3 9 -5 1 -5 -18z"/>
<path d="M2062 955 c0 -16 2 -22 5 -12 2 9 2 23 0 30 -3 6 -5 -1 -5 -18z"/>
<path d="M2422 955 c0 -16 2 -22 5 -12 2 9 2 23 0 30 -3 6 -5 -1 -5 -18z"/>
<path d="M3572 955 c0 -16 2 -22 5 -12 2 9 2 23 0 30 -3 6 -5 -1 -5 -18z"/>
<path d="M4552 960 c0 -14 2 -19 5 -12 2 6 2 18 0 25 -3 6 -5 1 -5 -13z"/>
<path d="M3802 950 c0 -14 2 -19 5 -12 2 6 2 18 0 25 -3 6 -5 1 -5 -13z"/>
<path d="M1311 944 c0 -11 3 -14 6 -6 3 7 2 16 -1 19 -3 4 -6 -2 -5 -13z"/>
<path d="M2473 745 c0 -33 2 -45 4 -27 2 18 2 45 0 60 -2 15 -4 0 -4 -33z"/>
<path d="M342 725 c0 -16 2 -22 5 -12 2 9 2 23 0 30 -3 6 -5 -1 -5 -18z"/>
<path d="M992 720 c0 -19 2 -27 5 -17 2 9 2 25 0 35 -3 9 -5 1 -5 -18z"/>
<path d="M1832 725 c0 -16 2 -22 5 -12 2 9 2 23 0 30 -3 6 -5 -1 -5 -18z"/>
<path d="M2902 715 c0 -16 2 -22 5 -12 2 9 2 23 0 30 -3 6 -5 -1 -5 -18z"/>
<path d="M4491 724 c0 -11 3 -14 6 -6 3 7 2 16 -1 19 -3 4 -6 -2 -5 -13z"/>
<path d="M1813 505 c0 -27 2 -38 4 -22 2 15 2 37 0 50 -2 12 -4 0 -4 -28z"/>
<path d="M3533 505 c0 -27 2 -38 4 -22 2 15 2 37 0 50 -2 12 -4 0 -4 -28z"/>
<path d="M4393 505 c0 -27 2 -38 4 -22 2 15 2 37 0 50 -2 12 -4 0 -4 -28z"/>
<path d="M2042 490 c0 -19 2 -27 5 -17 2 9 2 25 0 35 -3 9 -5 1 -5 -18z"/>
<path d="M2562 490 c0 -19 2 -27 5 -17 2 9 2 25 0 35 -3 9 -5 1 -5 -18z"/>
<path d="M4442 490 c0 -19 2 -27 5 -17 2 9 2 25 0 35 -3 9 -5 1 -5 -18z"/>
<path d="M2962 485 c0 -16 2 -22 5 -12 2 9 2 23 0 30 -3 6 -5 -1 -5 -18z"/>
<path d="M3902 485 c0 -16 2 -22 5 -12 2 9 2 23 0 30 -3 6 -5 -1 -5 -18z"/>
<path d="M4042 485 c0 -16 2 -22 5 -12 2 9 2 23 0 30 -3 6 -5 -1 -5 -18z"/>
<path d="M4272 485 c0 -16 2 -22 5 -12 2 9 2 23 0 30 -3 6 -5 -1 -5 -18z"/>
<path d="M632 480 c0 -14 2 -19 5 -12 2 6 2 18 0 25 -3 6 -5 1 -5 -13z"/>
<path d="M1082 480 c0 -14 2 -19 5 -12 2 6 2 18 0 25 -3 6 -5 1 -5 -13z"/>
<path d="M2612 480 c0 -14 2 -19 5 -12 2 6 2 18 0 25 -3 6 -5 1 -5 -13z"/>
<path d="M3431 484 c0 -11 3 -14 6 -6 3 7 2 16 -1 19 -3 4 -6 -2 -5 -13z"/>
<path d="M3271 474 c0 -11 3 -14 6 -6 3 7 2 16 -1 19 -3 4 -6 -2 -5 -13z"/>
<path d="M1947 459 c7 -7 15 -10 18 -7 3 3 -2 9 -12 12 -14 6 -15 5 -6 -5z"/>
<path d="M2473 270 c0 -30 2 -43 4 -27 2 15 2 39 0 55 -2 15 -4 2 -4 -28z"/>
<path d="M2813 275 c0 -27 2 -38 4 -22 2 15 2 37 0 50 -2 12 -4 0 -4 -28z"/>
<path d="M2953 270 c0 -30 2 -43 4 -27 2 15 2 39 0 55 -2 15 -4 2 -4 -28z"/>
<path d="M1573 265 c0 -27 2 -38 4 -22 2 15 2 37 0 50 -2 12 -4 0 -4 -28z"/>
<path d="M3773 265 c0 -22 2 -30 4 -17 2 12 2 30 0 40 -3 9 -5 -1 -4 -23z"/>
<path d="M482 260 c0 -14 2 -19 5 -12 2 6 2 18 0 25 -3 6 -5 1 -5 -13z"/>
<path d="M941 264 c0 -11 3 -14 6 -6 3 7 2 16 -1 19 -3 4 -6 -2 -5 -13z"/>
<path d="M3423 230 c0 -30 2 -43 4 -27 2 15 2 39 0 55 -2 15 -4 2 -4 -28z"/>
<path d="M1091 254 c0 -11 3 -14 6 -6 3 7 2 16 -1 19 -3 4 -6 -2 -5 -13z"/>
<path d="M1482 245 c0 -16 2 -22 5 -12 2 9 2 23 0 30 -3 6 -5 -1 -5 -18z"/>
<path d="M2022 245 c0 -16 2 -22 5 -12 2 9 2 23 0 30 -3 6 -5 -1 -5 -18z"/>
<path d="M2332 250 c0 -14 2 -19 5 -12 2 6 2 18 0 25 -3 6 -5 1 -5 -13z"/>
<path d="M2511 254 c0 -11 3 -14 6 -6 3 7 2 16 -1 19 -3 4 -6 -2 -5 -13z"/>
</g>
</svg>
