<svg id="Capa_1" data-name="Capa 1" xmlns="http://www.w3.org/2000/svg" viewBox="0 0 1000 690.93"><defs><style>.cls-1{fill:#223b82;}</style></defs><title>CONTRACCIÓN</title><path class="cls-1" d="M160.86,253.44,71.21,437.49h58.61l15.83-35.76h86.12l15.83,35.76h59.76l-89.93-184Zm1.79,109.9,26.06-58.84,26.06,58.84Z"/><path class="cls-1" d="M503.63,261.59q-20.17-8.14-48-8.15H362.77V437.49h57.45V389.38h35.39q27.86,0,48-8.28t31.18-23.54q11-15.24,11-36,0-21-11-36.42T503.63,261.59ZM479,341.26q-8.85,7.1-26.83,7.1H420.22v-53.9h31.91q18,0,26.83,7.1t8.85,20Q487.81,334.17,479,341.26Z"/><polygon class="cls-1" points="873.96 253.44 831.42 372.02 790.4 253.44 737.61 253.44 694.61 370.91 653.76 253.44 594.58 253.44 660.43 437.49 721.94 437.49 762.52 325.4 801.43 437.49 862.93 437.49 928.79 253.44 873.96 253.44"/></svg>
