<svg xmlns="http://www.w3.org/2000/svg" width="24" height="24" fill="none" viewBox="0 0 24 24" id="send-mail"><path fill="#000" fill-rule="evenodd" d="M7.5 8C7.5 7.17157 8.17157 6.5 9 6.5H21C21.8284 6.5 22.5 7.17157 22.5 8V16C22.5 16.8284 21.8284 17.5 21 17.5H9C8.17157 17.5 7.5 16.8284 7.5 16V8ZM9 7.5C8.72386 7.5 8.5 7.72386 8.5 8V16C8.5 16.2761 8.72386 16.5 9 16.5H21C21.2761 16.5 21.5 16.2761 21.5 16V8C21.5 7.72386 21.2761 7.5 21 7.5H9Z" clip-rule="evenodd"></path><path fill="#000" fill-rule="evenodd" d="M8.6159 6.67992C8.79268 6.46778 9.10797 6.43912 9.3201 6.6159L12.7594 9.48196C14.0573 10.5636 15.9427 10.5636 17.2407 9.48195L20.6799 6.6159C20.8921 6.43912 21.2073 6.46778 21.3841 6.67992 21.5609 6.89206 21.5322 7.20734 21.3201 7.38412L17.8808 10.2502C16.212 11.6408 13.788 11.6409 12.1192 10.2502L8.67992 7.38412C8.46778 7.20734 8.43912 6.89206 8.6159 6.67992zM3.5 9C3.5 8.72386 3.72386 8.5 4 8.5H5.5C5.77614 8.5 6 8.72386 6 9 6 9.27614 5.77614 9.5 5.5 9.5H4C3.72386 9.5 3.5 9.27614 3.5 9zM2.5 12C2.5 11.7239 2.72386 11.5 3 11.5H5.5C5.77614 11.5 6 11.7239 6 12 6 12.2761 5.77614 12.5 5.5 12.5H3C2.72386 12.5 2.5 12.2761 2.5 12zM1.5 15C1.5 14.7239 1.72386 14.5 2 14.5H5.5C5.77614 14.5 6 14.7239 6 15 6 15.2761 5.77614 15.5 5.5 15.5H2C1.72386 15.5 1.5 15.2761 1.5 15z" clip-rule="evenodd"></path></svg>