<svg xmlns="http://www.w3.org/2000/svg" viewBox="0 0 512 512" id="phone-ringing"><path d="M312.099 199.519a24.333 24.333 0 0 0 15.024 5.171c7.276 0 14.481-3.225 19.296-9.389l39.219-50.197c8.3-10.625 6.407-26.022-4.218-34.321-10.627-8.299-26.022-6.409-34.322 4.218l.001-.001-39.219 50.197c-8.299 10.625-6.407 26.021 4.219 34.322zm8.389-24.473 39.218-50.196.001-.001a8.44 8.44 0 0 1 6.67-3.245c1.819 0 3.652.583 5.193 1.788 1.779 1.39 2.91 3.389 3.186 5.629s-.338 4.455-1.727 6.233l-39.219 50.197c-2.868 3.672-8.191 4.327-11.863 1.458-3.673-2.868-4.327-8.191-1.459-11.863zM256 180.263c13.517 0 24.513-10.997 24.513-24.514v-63.7c0-13.517-10.996-24.513-24.513-24.513s-24.514 10.997-24.514 24.513v63.7c0 13.517 10.997 24.514 24.514 24.514zm-8.514-88.214c0-4.694 3.819-8.513 8.514-8.513s8.513 3.819 8.513 8.513v63.7c0 4.694-3.818 8.514-8.513 8.514s-8.514-3.819-8.514-8.514v-63.7zm-121.123 53.055 39.216 50.196c4.816 6.165 12.021 9.389 19.297 9.389a24.329 24.329 0 0 0 15.025-5.172c10.625-8.3 12.518-23.697 4.218-34.322L164.902 115a24.295 24.295 0 0 0-16.287-9.217c-6.487-.799-12.888.979-18.035 4.999-10.625 8.3-12.517 23.696-4.217 34.322-.001 0-.001 0 0 0zm10.881-16.083a8.392 8.392 0 0 1 3.186-5.63 8.393 8.393 0 0 1 6.233-1.728 8.398 8.398 0 0 1 5.631 3.187l39.217 50.195c2.868 3.673 2.214 8.995-1.459 11.864-3.671 2.869-8.995 2.214-11.864-1.459l-39.217-50.196a8.398 8.398 0 0 1-1.727-6.233zm342.963 165.278c-66.177-40.678-142.859-62.144-221.826-62.144-.778 0-1.559.002-2.338.006-.785-.004-1.557-.006-2.341-.006-79.045 0-155.736 21.469-221.909 62.144-24.517 15.069-36.357 42.969-30.165 71.077l11.979 54.373c2.06 9.348 8.118 17.147 16.621 21.4a31.244 31.244 0 0 0 13.997 3.314c4.445 0 8.903-.95 13.094-2.853l87.159-39.599c9.304-4.227 15.604-12.058 17.744-22.052l7.521-35.169c1.313-6.142 5.581-10.456 11.708-11.836 24.234-5.457 49.206-8.223 74.231-8.223h.311c.101-.002.215 0 .324 0 25.023 0 49.999 2.767 74.231 8.223 6.127 1.381 10.395 5.695 11.708 11.837l7.521 35.171c2.14 9.993 8.44 17.824 17.744 22.05l87.159 39.599c8.715 3.96 18.588 3.792 27.091-.461 8.503-4.252 14.562-12.052 16.621-21.4l11.979-54.373c6.193-28.109-5.647-56.009-30.164-71.078zm14.54 67.635-11.979 54.372c-1.016 4.611-3.987 8.45-8.152 10.533-4.165 2.083-9.019 2.157-13.315.204l-87.161-39.599c-4.702-2.136-7.634-5.78-8.715-10.83l-7.521-35.169c-2.596-12.137-11.729-21.372-23.839-24.1-25.387-5.716-51.542-8.614-77.747-8.614h-.635c-26.204 0-52.362 2.898-77.747 8.614-12.109 2.728-21.243 11.962-23.839 24.1l-7.521 35.168c-1.081 5.051-4.013 8.695-8.715 10.832l-87.161 39.6c-4.296 1.953-9.15 1.878-13.315-.205-4.165-2.083-7.137-5.922-8.152-10.533l-11.979-54.373c-4.705-21.357 4.291-42.555 22.919-54.004 63.654-39.127 137.439-59.775 213.613-59.775.752 0 1.506.002 2.258.006.756-.004 1.5-.006 2.255-.006 76.085 0 149.88 20.65 213.53 59.775 18.627 11.449 27.623 32.647 22.918 54.004z"></path></svg>